<svg display="block" role="presentation" viewBox="0 0 178 43" xmlns="http://www.w3.org/2000/svg"><g d="M 0 38.329 L 0 4.666 L 7.733 4.666 L 7.733 31.213 L 22.053 31.213 L 22.053 38.329 Z M 34.017 24.478 L 21.906 4.666 L 30.7 4.666 L 41.463 22.943 L 34.017 24.484 Z M 41.223 24.478 L 33.778 22.937 L 44.541 4.66 L 53.335 4.66 L 41.229 24.478 Z M 33.773 38.329 L 33.773 22.17 L 41.506 22.17 L 41.506 38.329 Z M 58.659 38.329 L 58.659 4.666 L 66.779 4.666 L 81.528 25.202 L 81.528 4.666 L 89.261 4.666 L 89.261 38.334 L 81.528 38.334 L 66.392 17.221 L 66.392 38.334 L 58.659 38.334 Z M 94.694 38.329 L 107.763 4.66 L 115.447 4.66 L 102.857 38.329 L 94.689 38.329 Z M 100.845 31.937 L 100.845 25.11 L 122.996 25.11 L 122.996 31.937 Z M 120.924 38.329 L 108.334 4.66 L 116.018 4.66 L 129.087 38.329 L 120.918 38.329 Z M 135.047 21.5 C 135.047 9.626 144.663 0 156.524 0 C 168.385 0 178 9.626 178 21.5 C 178 33.374 168.385 43 156.524 43 C 144.663 43 135.047 33.374 135.047 21.5 Z M 159.237 19.104 C 158.177 19.589 157.024 19.785 155.86 19.676 C 156.377 16.001 153.696 12.266 150.041 11.597 C 150.83 7.807 155.186 5.439 158.786 6.882 C 164.203 8.689 164.518 16.894 159.237 19.104 Z M 167.662 24.554 C 163.996 26.787 158.808 24.505 157.954 20.291 C 161.609 19.611 164.29 15.898 163.773 12.212 C 170.696 11.455 173.807 21.201 167.656 24.56 Z M 155.088 19.932 C 154.995 20.466 154.838 20.983 154.62 21.473 C 151.308 19.856 146.979 21.244 145.19 24.484 C 140.665 21.957 141.035 14.814 145.815 12.778 C 150.433 10.47 156.132 14.88 155.082 19.927 Z M 155.779 32.873 C 155.838 32.944 155.898 33.015 155.963 33.086 C 146.582 40.076 139.382 23.857 150.857 21.565 C 152.69 21.358 154.593 21.979 155.963 23.215 C 153.532 25.828 153.445 30.168 155.779 32.868 Z M 167.607 30.456 C 166.112 34.882 159.955 36.227 156.741 32.835 C 153.706 29.944 154.375 24.516 158.035 22.458 C 159.808 25.709 164.132 27.086 167.46 25.474 C 168.156 27.059 168.211 28.823 167.607 30.451 Z" fill="transparent" height="43px" id="nPjZXn8T6" width="178.00000529711093px"><path d="M 0 33.668 L 0 0.005 L 7.733 0.005 L 7.733 26.552 L 22.053 26.552 L 22.053 33.668 Z M 34.017 19.818 L 21.906 0.005 L 30.7 0.005 L 41.463 18.282 L 34.017 19.823 Z M 41.223 19.818 L 33.778 18.277 L 44.541 0 L 53.335 0 L 41.229 19.818 Z M 33.773 33.668 L 33.773 17.509 L 41.506 17.509 L 41.506 33.668 Z M 58.659 33.668 L 58.659 0.005 L 66.779 0.005 L 81.528 20.542 L 81.528 0.005 L 89.261 0.005 L 89.261 33.674 L 81.528 33.674 L 66.392 12.56 L 66.392 33.674 L 58.659 33.674 Z M 94.694 33.668 L 107.763 0 L 115.447 0 L 102.857 33.668 L 94.689 33.668 Z M 100.845 27.277 L 100.845 20.449 L 122.996 20.449 L 122.996 27.277 Z M 120.924 33.668 L 108.334 0 L 116.018 0 L 129.087 33.668 L 120.918 33.668 Z" fill="rgb(53, 11, 108)" height="33.67371486405972px" id="SSS3kNoSq" transform="translate(0 4.66)" width="129.08670353589764px"/><path d="M 0 21.5 C 0 9.626 9.615 0 21.476 0 C 33.337 0 42.953 9.626 42.953 21.5 C 42.953 33.374 33.337 43 21.476 43 C 9.615 43 0 33.374 0 21.5 Z" fill="rgb(53, 11, 108)" height="43px" id="ktO1IZwSr" transform="translate(135.047 0)" width="42.95276408617343px"/><path d="M 9.196 12.65 C 8.136 13.135 6.983 13.331 5.819 13.222 C 6.336 9.547 3.655 5.812 0 5.142 C 0.789 1.353 5.145 -1.015 8.745 0.427 C 14.162 2.235 14.477 10.44 9.196 12.65 Z" fill="rgb(255, 216, 255)" height="13.251134265668417px" id="R71XYrtXa" transform="translate(150.041 6.454)" width="12.987375876789063px"/><path d="M 25.658 12.406 C 21.993 14.638 16.805 12.357 15.951 8.143 C 19.605 7.463 22.286 3.75 21.77 0.064 C 28.693 -0.693 31.804 9.053 25.653 12.412 Z M 13.085 7.784 C 12.992 8.318 12.834 8.835 12.617 9.325 C 9.305 7.708 4.976 9.096 3.187 12.335 C -1.338 9.809 -0.968 2.666 3.812 0.63 C 8.429 -1.678 14.129 2.732 13.079 7.779 Z" fill="rgb(255, 216, 255)" height="13.278128602218725px" id="BbXizjp2_" transform="translate(142.003 12.148)" width="28.95279584258227px"/><path d="M 10.825 11.347 C 10.885 11.418 10.945 11.489 11.01 11.56 C 1.629 18.55 -5.572 2.331 5.903 0.039 C 7.736 -0.168 9.639 0.453 11.01 1.689 C 8.579 4.302 8.492 8.641 10.825 11.342 Z" fill="rgb(255, 216, 255)" height="13.296333966045141px" id="Parct9MBV" transform="translate(144.954 21.526)" width="11.009944641564505px"/><path d="M 12.783 7.998 C 11.287 12.424 5.131 13.769 1.917 10.377 C -1.118 7.486 -0.449 2.058 3.211 0 C 4.984 3.25 9.308 4.628 12.636 3.016 C 13.332 4.601 13.387 6.365 12.783 7.992 Z" fill="rgb(255, 216, 255)" height="12.28287200476567px" id="xrVnmWlNw" transform="translate(154.824 22.458)" width="13.199957265347367px"/></g></svg>